<svg width="293" height="293" viewBox="0 0 293 293" fill="none" xmlns="http://www.w3.org/2000/svg">
<path fill-rule="evenodd" clip-rule="evenodd" d="M132.307 0.582132C66.4177 7.13813 13.5137 56.3331 1.65868 122.069C-0.752321 135.437 -0.49932 160.084 2.18568 173.517C14.4317 234.778 59.9817 279.581 121.807 291.176C133.98 293.458 158.634 293.458 170.807 291.176C233.483 279.421 279.159 233.745 290.914 171.069C293.201 158.872 293.197 134.232 290.906 122.069C280.312 65.8321 241.68 22.2941 188.046 6.14613C170.974 1.00613 149.542 -1.13287 132.307 0.582132ZM151.817 68.0091C153.713 68.8011 156.171 70.9381 157.281 72.7591C159.182 75.8761 159.3 77.7471 159.303 104.819L159.307 133.569H188.159C216.543 133.569 217.066 133.606 220.409 135.852C222.594 137.319 224.332 139.64 225.276 142.352C226.568 146.061 226.568 147.077 225.276 150.786C224.332 153.498 222.594 155.819 220.409 157.286C217.066 159.532 216.543 159.569 188.159 159.569H159.307V188.421C159.307 216.805 159.27 217.328 157.024 220.671C155.557 222.856 153.236 224.594 150.524 225.538C146.815 226.83 145.799 226.83 142.09 225.538C139.378 224.594 137.057 222.856 135.59 220.671C133.344 217.328 133.307 216.805 133.307 188.421V159.569H104.455C76.0707 159.569 75.5477 159.532 72.2047 157.286C70.0197 155.819 68.2817 153.498 67.3377 150.786C66.0457 147.077 66.0457 146.061 67.3377 142.352C68.2817 139.64 70.0197 137.319 72.2047 135.852C75.5477 133.606 76.0707 133.569 104.455 133.569H133.307L133.311 104.819C133.314 77.7571 133.433 75.8751 135.33 72.7621C138.71 67.2201 145.348 65.3061 151.817 68.0091Z" fill="black"/>
</svg>
