<svg width="321" height="267" viewBox="0 0 321 267" fill="none" xmlns="http://www.w3.org/2000/svg">
<path fill-rule="evenodd" clip-rule="evenodd" d="M28.5 1.562C22.209 3.551 18.066 6.021 12.876 10.876C2.883 20.223 0 28.791 0 49.139C0 64.581 1.123 68.112 7.077 71.396C11.592 73.887 18.174 73.271 21.691 70.029C26.085 65.979 27 62.294 27 48.645C27 33.765 27.993 30.977 34.316 28.106C37.748 26.548 40.903 26.203 51.868 26.185L65.235 26.163L69.118 22.281C72.639 18.76 73 17.911 73 13.163C73 8.415 72.639 7.566 69.118 4.045L65.235 0.162998L48.868 0.23C38.629 0.272 31.002 0.770996 28.5 1.562ZM250.964 3.964C247.375 7.553 247 8.413 247 13.06C247 17.508 247.456 18.691 250.42 21.928L253.84 25.663L269.17 26.183C291.455 26.938 292.996 28.34 293.006 47.863C293.009 54.353 293.456 61.264 293.999 63.22C297.164 74.612 312.532 76.43 318.231 66.086C319.91 63.04 320.075 60.903 319.738 46.663C319.414 32.986 319.03 29.823 317.095 24.878C313.936 16.809 305.669 8.11 297.185 3.931C290.556 0.665 290.544 0.662997 272.74 0.330997L254.928 0L250.964 3.964ZM139.5 54.145C121.125 57.488 105.756 63.989 92.083 74.205C73.73 87.917 61.255 105.345 54.961 126.064L52.805 133.163L54.979 140.413C57.395 148.474 63.304 160.81 68.178 167.973C72.775 174.727 84.434 186.548 92.132 192.258C115.694 209.736 148.212 217.445 177.999 212.614C202.4 208.657 221.314 199.479 238.094 183.454C251.084 171.048 260.211 156.459 265.021 140.413L267.195 133.163L265.021 125.913C260.211 109.867 251.084 95.278 238.094 82.872C212.336 58.273 175.623 47.575 139.5 54.145ZM176.49 97.012C184.946 100.968 192.204 108.261 196.307 116.922C199.201 123.031 199.5 124.554 199.5 133.163C199.5 141.772 199.201 143.295 196.307 149.404C192.174 158.128 184.965 165.337 176.241 169.47C170.132 172.364 168.609 172.663 160 172.663C151.391 172.663 149.868 172.364 143.759 169.47C135.035 165.337 127.826 158.128 123.693 149.404C120.799 143.295 120.5 141.772 120.5 133.163C120.5 124.554 120.799 123.031 123.693 116.922C128.912 105.905 139.466 97.035 150.746 94.185C157.824 92.396 169.326 93.659 176.49 97.012ZM7.077 194.93C1.123 198.214 0 201.745 0 217.187C0 232.137 1.4 239.577 5.544 246.647C9.088 252.696 17.052 259.828 23.782 262.983C29.198 265.521 30.44 265.681 47.286 265.995L65.072 266.326L69.036 262.362C72.645 258.753 73 257.93 73 253.163C73 248.415 72.639 247.566 69.118 244.045L65.235 240.163L51.868 240.141C40.903 240.123 37.748 239.778 34.316 238.22C27.993 235.349 27 232.561 27 217.681C27 204.032 26.085 200.347 21.691 196.297C18.174 193.055 11.592 192.439 7.077 194.93ZM301.5 194.117C298.763 195.249 295.352 199.086 294.067 202.478C293.48 204.026 293 210.911 293 217.778C293 232.552 291.997 235.353 285.684 238.22C282.252 239.778 279.097 240.123 268.132 240.141L254.765 240.163L250.882 244.045C247.361 247.566 247 248.415 247 253.163C247 257.93 247.355 258.753 250.964 262.362L254.928 266.326L272.714 265.995C289.56 265.681 290.802 265.521 296.218 262.983C307.142 257.863 315.53 247.905 318.489 236.543C320.786 227.727 320.585 204.723 318.173 200.225C315.124 194.54 307.356 191.695 301.5 194.117Z" fill="black"/>
</svg>
