<svg width="47" height="47" viewBox="0 0 47 47" fill="none" xmlns="http://www.w3.org/2000/svg">
<rect width="47" height="47" rx="8" fill="#F3E1C3"/>
<path fill-rule="evenodd" clip-rule="evenodd" d="M23.6286 10.9355C23.6286 13.5841 23.7447 13.9995 24.4413 13.8419C25.6297 13.572 25.6297 8.29898 24.4413 8.02914C23.7447 7.8715 23.6286 8.28693 23.6286 10.9355ZM18.7055 11.2989C18.3294 12.016 20.526 14.4932 21.5374 14.4932C23.0755 14.4932 22.7528 13.1183 20.8548 11.5879C19.4978 10.4933 19.1523 10.4467 18.7055 11.2989ZM27.9039 11.8479C26.2943 13.0488 26.0347 13.8085 27.074 14.2781C27.8942 14.6492 30.1302 12.982 30.1302 11.9995C30.1302 10.7456 29.4434 10.6985 27.9039 11.8479ZM12.5406 20.2479L9 24.3601L12.9107 24.2161L16.821 24.0716L18.5667 20.7876C19.527 18.9814 20.3272 17.196 20.3453 16.8194C20.3667 16.3651 19.6561 16.1352 18.2295 16.1352C16.1792 16.1352 15.9191 16.3235 12.5406 20.2479ZM22.9176 16.5397C22.267 17.1057 18.9047 23.8861 19.1383 24.1614C19.241 24.2824 21.7613 24.3114 24.739 24.2265L30.1535 24.0716L28.1589 20.2403C26.4787 17.0126 25.9465 16.3864 24.7803 16.266C24.0192 16.1878 23.1809 16.3109 22.9176 16.5397ZM28.737 16.7192C28.737 17.0405 29.521 18.8834 30.4785 20.8139L32.2201 24.3245L35.8758 24.3349C40.0838 24.3469 40.1033 24.6545 35.5554 19.3103C33.0773 16.3985 32.6826 16.1352 30.7953 16.1352C29.6463 16.1352 28.737 16.393 28.737 16.7192ZM16.1755 33.337C19.3557 37.101 22.0278 40.0982 22.1133 39.9975C22.1987 39.8963 21.1329 36.8876 19.7448 33.3112L17.2204 26.8083L13.807 26.6507L10.3932 26.4936L16.1755 33.337ZM21.6981 33.3468C23.1429 37.0934 24.4627 39.9871 24.6313 39.7781C24.9406 39.3927 29.6658 27.1739 29.6658 26.7591C29.6658 26.6359 27.2821 26.5347 24.3684 26.5347H19.071L21.6981 33.3468ZM29.4336 32.6588C28.1565 36.0129 26.9458 39.2707 26.7429 39.8985C26.5404 40.5257 29.1002 37.8405 32.4318 33.9314C35.7634 30.0223 38.4895 26.7591 38.4895 26.6791C38.4895 26.5998 36.9741 26.5401 35.1226 26.5472L31.7556 26.5604L29.4336 32.6588Z" fill="#D22323"/>
</svg>
